<?xml version="1.0" encoding="UTF-8" standalone="no"?>
<!-- Created with Inkscape (http://www.inkscape.org/) -->

<svg
   xmlns:dc="http://purl.org/dc/elements/1.1/"
   xmlns:cc="http://creativecommons.org/ns#"
   xmlns:rdf="http://www.w3.org/1999/02/22-rdf-syntax-ns#"
   xmlns:svg="http://www.w3.org/2000/svg"
   xmlns="http://www.w3.org/2000/svg"
   version="1.1"
   width="367"
   height="350"
   viewBox="0 0 293.6 280"
   id="svg3047">
  <metadata
     id="metadata3065">
    <rdf:RDF>
      <cc:Work
         rdf:about="">
        <dc:format>image/svg+xml</dc:format>
        <dc:type
           rdf:resource="http://purl.org/dc/dcmitype/StillImage" />
        <dc:title></dc:title>
      </cc:Work>
    </rdf:RDF>
  </metadata>
  <defs
     id="defs3063" />
  <g
     transform="translate(0,-20)"
     id="#ffffffff" />
  <g
     transform="matrix(0.1071179,0,0,0.10713936,-0.27688448,247.24013)"
     id="#000000ff"
     style="fill:#ff0000">
    <path
       d="m 237.36,28.46 c 4.2,-1.69 8.25,1.29 11.43,3.72 3.22,2.76 6.88,5.19 9.25,8.77 -0.14,0.38 -0.42,1.14 -0.56,1.52 -5.74,7.36 -12.04,14.31 -17.14,22.15 0.27,1.54 0.88,2.99 1.33,4.48 -8.45,5.13 -18.67,5.51 -27.64,9.34 -2.87,1.2 -4.72,3.84 -7.08,5.75 -4.9,-3.88 -7.68,-9.98 -8.11,-16.15 -0.68,-7.37 -1.35,-14.74 -2.04,-22.11 -0.09,-2.61 -1.64,-4.81 -2.67,-7.12 5.3,-0.63 9.66,3.54 14.75,3.64 10.23,-2.99 18.74,-9.86 28.48,-13.99 m -26.37,19.5 c -0.05,7.92 0.26,15.86 0.99,23.74 4.35,-1.13 8.59,-2.61 12.88,-3.94 1.98,-0.71 4.36,-1.7 5,-3.93 1.93,-7.38 4.82,-14.67 4.72,-22.42 -7.88,2.12 -15.73,4.36 -23.59,6.55 z"
       id="path3051"
       style="fill:#ff0000" />
    <path
       d="m 158.57,45.56 c 4.14,-4 9.38,-7.89 15.5,-7.08 5.95,0.53 13.64,1.94 15.48,8.65 -3.79,9.47 -8.45,18.56 -13.63,27.34 1.33,1.22 5.62,2.63 3.44,4.79 -8.04,8.22 -20.71,8.13 -29.77,14.8 -0.79,2.81 0.27,8.26 -3.65,8.51 -4.26,-2.76 -6,-7.71 -6.98,-12.44 -1.91,-11.15 -4.03,-22.32 -7.41,-33.12 -0.77,-3.15 -4.73,-5.65 -4.26,-8.73 6.25,2.41 12.82,4.41 18.36,8.28 4.47,8.33 3.24,18.28 4.04,27.41 7.12,-1.66 14.78,-5.78 16.72,-13.4 1.4,-6.62 2.42,-13.37 2.37,-20.15 -6.68,2.29 -13.8,3.11 -20.82,3.55 -2.72,0.31 -5.21,-0.95 -7.51,-2.19 6.27,-1 13.29,-1.58 18.12,-6.22 z"
       id="path3053"
       style="fill:#ff0000" />
    <path
       d="m 64.76,46.96 c 6.17,-0.04 12.29,0.9 18.36,1.9 4.94,0.94 10.01,1.82 14.46,4.29 1.82,5.41 2.85,11.25 2.16,16.96 -0.12,1.79 -1.09,3.3 -2.24,4.61 C 83.98,69.68 70.1,61.04 64.76,46.96 z"
       id="path3055"
       style="fill:#ff0000" />
    <path
       d="m 96.43,95.34 c 4.51,-2.17 8.65,-5.25 13.49,-6.63 4.96,0.46 10.14,2.19 13.82,5.65 1.67,3.32 -0.55,7.91 -4.09,9.06 -8.86,3.39 -17.81,6.6 -26.31,10.84 0.88,8.25 -0.07,16.53 -0.11,24.79 0.05,1.21 -0.08,2.73 1.03,3.56 5.7,4.81 13.38,5.95 19.79,9.38 5.46,5.33 5.69,13.68 5.72,20.83 -1.92,1.26 -4.3,2.06 -6.38,0.62 -10.74,-5.91 -14.35,-18.3 -20.95,-27.82 -0.72,11.12 -1.55,22.23 -2.14,33.35 0.06,21.34 -1,42.68 -2.99,63.92 -0.87,6.2 -0.7,13.39 -5.65,17.99 -1.76,1.99 -3.56,-0.91 -4.44,-2.3 -2.68,-5.23 -4.68,-10.83 -6.08,-16.53 -0.97,-3.67 0.14,-7.38 0.68,-11.01 1.57,-9.3 3.22,-18.59 4.71,-27.9 1.09,-10.66 1.79,-21.36 2.74,-32.02 0.57,-9.85 0.4,-19.73 1.12,-29.56 L 81,140.48 c -0.17,-0.01 -0.52,-0.02 -0.69,-0.02 -11.43,15.47 -22.73,31.06 -35.03,45.86 -5.39,6.27 -11.87,11.85 -19.61,14.97 9.18,-13.96 18.8,-27.62 28.14,-41.47 7.88,-12.48 15.84,-24.95 22.88,-37.92 -15.94,5.97 -31.45,13.12 -47.74,18.15 -1.55,0.4 -3.36,1.32 -4.82,0.12 -4.08,-2.39 -7.75,-5.46 -10.96,-8.92 28.08,-11.17 56.62,-21.49 83.26,-35.91 z"
       id="path3057"
       style="fill:#ff0000" />
    <path
       d="m 224.7,94.86 c 4.74,-1.22 10.16,-1.62 14.52,0.98 5.41,2.95 9.57,7.62 13.61,12.17 -8.74,20.44 -17.62,40.83 -25.3,61.71 -2.74,-0.25 -5.26,-1.4 -7.69,-2.61 -6.58,2.06 -13.15,4.18 -19.73,6.26 -0.5,6.88 -0.7,13.78 -0.61,20.69 20.71,-3.91 41.48,-7.7 62.48,-9.68 5.66,-0.47 11.35,-0.91 17.02,-0.53 2.08,0.73 3.56,2.5 4.96,4.13 3.05,3.94 5.99,8.19 7.07,13.15 -16.34,0.7 -32.69,0.59 -49.04,0.65 -11.42,0.69 -22.78,2.1 -34.14,3.42 -2.79,0.29 -6.26,1.19 -7.14,4.24 -1.24,5.45 -0.6,11.09 -0.47,16.62 -0.46,14.98 -0.73,29.97 -1.2,44.96 -0.04,7.39 -2.33,14.5 -4.53,21.48 -1.07,0 -2.13,0.02 -3.2,0.04 -2.78,-5.77 -5.09,-12 -5.07,-18.49 0.01,-21.57 0.03,-43.14 -0.01,-64.71 -18.15,3.91 -35.54,10.62 -53.41,15.61 -3.07,0.67 -6.19,2.69 -9.37,1.4 -4.42,-1.62 -7.91,-4.95 -10.98,-8.41 24.88,-6.24 49.49,-13.58 74.24,-20.34 0.14,-6.98 0.08,-13.97 -0.74,-20.91 -9.35,3.4 -18.68,6.88 -28.06,10.22 -2.5,-2.82 -5.06,-5.93 -5.6,-9.79 -1.87,-11.63 -3.07,-23.37 -4.99,-34.99 -2.5,-8.16 -3.23,-17.15 -8.59,-24.13 5.02,-0.14 10.08,0.29 15.08,-0.21 12.85,-4.42 25.47,-9.62 38.61,-13.2 10.8,-3.13 21.68,-6 32.28,-9.73 m -17.83,14.52 c -2.63,0.92 -7.08,1.86 -6.61,5.52 -0.12,5.36 0.01,10.72 0.46,16.07 3.27,0.15 7.02,-0.54 9.79,1.63 1.64,1.13 1.36,3.27 1.66,5 -4.12,1.2 -8.21,2.49 -12.29,3.82 -1.14,7.06 -0.98,14.22 -0.26,21.3 6.08,-1.07 11.73,-3.86 17.97,-4.29 2.03,-3.63 3.14,-7.66 4.21,-11.66 3.16,-11.79 6.33,-23.62 8.41,-35.65 -0.06,-1.97 0.91,-5.93 -2.12,-5.89 -7.21,0.48 -14.21,2.54 -21.22,4.15 m -52.17,15.19 c 4.56,10.14 4.37,21.53 5.77,32.36 0.92,6.12 0.64,12.47 2.43,18.42 6.77,-1.04 13.62,-2.52 19.82,-5.55 1.56,-0.95 3.8,-1.81 3.92,-3.93 0.66,-6.28 0.47,-12.65 -0.13,-18.93 -5.1,0.94 -10.12,3.25 -15.4,2.51 -2.55,-0.4 -5.66,-0.42 -7.1,-2.97 7.43,-2.2 14.7,-5.08 21.57,-8.66 0.88,-2.46 0.99,-5.11 0.75,-7.68 -0.36,-4.4 -0.33,-8.86 -1.28,-13.2 -10.03,2.93 -19.91,6.43 -30.35,7.63 z"
       id="path3059"
       style="fill:#ff0000" />
  </g>
  <rect
     width="30.540384"
     height="29.749315"
     ry="6.1520982"
     x="0.71589309"
     y="249.53479"
     id="rect3067"
     style="fill:none;stroke:#ff0000;stroke-width:1.41732287;stroke-miterlimit:4;stroke-opacity:1;stroke-dasharray:none" />
</svg>
