<!-- Created with Inkscape (http://www.inkscape.org/) -->
<svg xmlns:rdf="http://www.w3.org/1999/02/22-rdf-syntax-ns#" xmlns="http://www.w3.org/2000/svg" height="100%" width="100%" version="1.1" xmlns:cc="http://creativecommons.org/ns#" xmlns:dc="http://purl.org/dc/elements/1.1/" viewBox="0 0 63.78 60.236">
	<metadata>
		<rdf:RDF>
			<cc:Work rdf:about="">
				<dc:format>image/svg+xml</dc:format>
				<dc:type rdf:resource="http://purl.org/dc/dcmitype/StillImage"/>
				<dc:title/>
			</cc:Work>
		</rdf:RDF>
	</metadata>
	<path d="m24.079,32.828c-0.03432-0.034-0.8977-0.092-1.9186-0.128s-1.9785-0.1145-2.128-0.17431c-0.1693-0.068-1.098-0.1143-2.4623-0.1234l-2.1905-0.015,2.1726-0.087c1.3718-0.055,2.2972-0.053,2.5105,0.01,0.37771,0.1035,2.3682,0.07,5.5522-0.093,1.1683-0.06,2.385-0.081,2.7037-0.046,0.73948,0.08,2.177,0.066,2.3112-0.021,0.05655-0.037-0.20135-0.1044-0.57311-0.1501-0.78568-0.097-1.9164-0.1312-7.7731-0.23831l-4.2969-0.079,5.359-0.032c2.9475-0.018,5.5981-0.015,5.8901,0.01,1.0076,0.075,2.5496,0.019,2.5872-0.094,0.01982-0.059,0.12862-0.108,0.24179-0.108,0.19594,0,0.1977-0.01,0.03684-0.1688-0.15719-0.1571-0.70662-0.1724-7.9145-0.22001-7.7173-0.051-7.7272-0.051-2.7244-0.087,2.7616-0.02,6.2378-0.026,7.7248-0.013,2.516,0.021,2.73,0.01,3.0823-0.1657l0.37869-0.1887-0.23385-0.1321c-0.34171-0.19301-13.362-0.1411-15.586,0.062-2.136,0.1951-2.1685,0.1727-0.28968-0.19971,0.90283-0.17891,1.8587-0.38841,2.1243-0.46561l0.48279-0.1403-0.53108-0.018c-0.29209-0.01-0.63971-0.051-0.77248-0.091l-0.2414-0.073,0.2414-0.059c0.67964-0.166,1.4979-0.22491,1.8076-0.1299,0.3961,0.1215,1.6598-0.035,2.6575-0.32971,0.35804-0.1056,1.0315-0.20901,1.4967-0.22971,0.46514-0.021,1.0412-0.081,1.2803-0.1345,0.70538-0.1571,6.847-0.1504,7.0052,0.01,0.03796,0.038,0.14691,0.027,0.2421-0.024,0.1007-0.054,0.54868-0.066,1.0712-0.029l0.89812,0.064-0.64524,0.21751c-0.52909,0.1783-0.78941,0.20951-1.446,0.173-0.72049-0.04-2.6445-0.093-4.47-0.1234-0.8134-0.014-2.8563,0.1617-3.3425,0.28661-0.19204,0.049-0.57384,0.09-0.84843,0.09-0.2746,0-0.98651,0.1065-1.582,0.23671-0.59552,0.1302-1.4521,0.27931-1.9035,0.33151-1.6719,0.1931-1.412,0.28661,0.86904,0.31251,1.1949,0.014,2.2812,0.018,2.414,0.01,0.13277-0.01,2.1757-0.015,4.5397-0.015,3.6716,0,4.3263-0.021,4.49-0.1447,0.10542-0.08,0.28127-0.1462,0.39077-0.1478,0.24789,0,0.65158,0.50732,0.51134,0.64742-0.16704,0.1669,0.40936,0.20701,3.7796,0.26311,1.7791,0.03,4.6903,0.084,6.4695,0.1219,1.7791,0.037,3.2891,0.063,3.3554,0.058,0.06638-0.01,0.1207,0.021,0.1207,0.06s-1.4447,0.054-3.2106,0.033c-2.8939-0.033-3.1867-0.023-2.9692,0.1086,0.13277,0.08,0.45866,0.1481,0.7242,0.1513,0.26553,0,0.66476,0.048,0.88714,0.099,0.52785,0.1217,2.2845,0.1848,5.629,0.20211,1.49,0.01,2.7326,0.052,2.7612,0.098,0.05347,0.086-2.8813,0.1526-4.6907,0.1057-0.87842-0.023-0.99126-0.01-0.84462,0.1075,0.09309,0.074,0.50589,0.1684,0.91731,0.21061,1.1137,0.1144,4.9757,0.1299,5.1166,0.021,0.09182-0.071,0.06356-0.1599-0.1207-0.37871-0.13233-0.1572-0.24059-0.32241-0.24059-0.36731,0-0.1357-0.66916-0.31211-0.93308-0.24591-0.26734,0.067-1.3231-0.069-2.3929-0.30921-0.54479-0.1221-0.63068-0.1651-0.45769-0.22901,0.11879-0.044,0.32196-0.037,0.45947,0.015,0.34906,0.1326,2.391,0.23571,2.5796,0.1303,0.10442-0.058,0.1286-0.1327,0.07265-0.22311-0.06667-0.1078-0.38773-0.1334-1.5647-0.1245-0.81446,0.01-1.6478,0.04-1.8518,0.076-0.45489,0.08-2.3407-0.19651-3.0086-0.44071-0.26553-0.097-0.70005-0.20221-0.9656-0.23351-0.26554-0.031-1.1129-0.1442-1.8829-0.25081-0.77006-0.1066-1.726-0.23841-2.1243-0.29291-1.0233-0.14-2.5259-0.39781-2.4914-0.42741,0.06176-0.053,3.948,0.24101,5.0019,0.37821,1.4743,0.19201,1.9048,0.28031,2.3658,0.48492,0.61465,0.27281,1.7847,0.39041,3.8817,0.39021,1.9678-0.0002,2.3421-0.061,2.0187-0.32931-0.10367-0.086-0.89069-0.1251-2.8768-0.143-1.7439-0.016-2.8214-0.063-2.9754-0.132-0.1907-0.085,0.11346-0.1121,1.4484-0.1306,0.92938-0.013,1.7767-0.017,1.8829-0.01,0.70672,0.05,1.9917,0.041,2.0467-0.014,0.03637-0.036,0.0035-0.1285-0.07296-0.20491-0.11566-0.1155-0.89982-0.1468-4.6552-0.18621-2.4839-0.026-4.5657-0.078-4.6263-0.1153-0.0606-0.037-0.70064-0.095-1.4223-0.1287-0.72167-0.033,1.2668-0.067,4.4188-0.075,3.1521-0.01,5.7562-0.039,5.7871-0.07,0.03089-0.031,0.0031-0.1091-0.06167-0.17391-0.16039-0.1602-9.6417-0.24961-14.449-0.1362-2.6283,0.062-3.8795,0.07-4.5382,0.028-2.5716-0.1615-2.8957-0.1637-4.4242-0.03-1.7483,0.1528-2.5603,0.1003-1.6028-0.1036,1.0878-0.23171,2.8431-0.32211,5.7429-0.29601,1.6433,0.015,3.0313,0.01,3.0844-0.022,0.05311-0.027,0.87869-0.011,1.8346,0.036,2.0546,0.101,2.9375,0.1051,9.1731,0.043,2.6023-0.026,4.8414-0.077,4.9759-0.1141,0.1856-0.051,0.29526-0.013,0.4549,0.1556,0.11569,0.1222,0.3424,0.35911,0.50379,0.52632,0.16139,0.1672,0.29343,0.39081,0.29343,0.49692,0,0.1183,0.13084,0.27011,0.33796,0.39221,0.18587,0.1096,0.33796,0.26471,0.33796,0.34471s0.12509,0.21011,0.27798,0.28911c0.3111,0.1608,0.42988,0.36971,0.28975,0.50972-0.05977,0.06-0.03978,0.1373,0.05583,0.21651,0.08191,0.068,0.14893,0.095,0.14893,0.06s0.08729-0.017,0.19399,0.04c0.13853,0.074,0.17837,0.166,0.13934,0.32131-0.04449,0.1771,0.0047,0.24371,0.26466,0.35791,0.21748,0.096,0.32983,0.21731,0.35226,0.38161,0.01812,0.1326,0.08501,0.30631,0.14865,0.38591,0.06364,0.08,0.18624,0.30101,0.27245,0.49211-8.6194,0.30051-58.171,3.1413-28.351,0.015zm6.7985-0.013c0-0.1368-0.27268-0.32311-0.37779-0.25821-0.11193,0.29691,0.19325,0.42371,0.37779,0.25821zm2.554-0.1143c0.13034-0.1286-0.09939-0.1081-0.67108,0.06-0.65843,0.18661-0.53655,0.1475,0.04828,0.086,0.2921-0.031,0.57236-0.096,0.62281-0.1461zm0.54515-0.53582c0.112-0.1348,0.1049-0.151-0.05259-0.1205-0.10013,0.019-0.20013,0.089-0.22224,0.1558-0.05735,0.1721,0.12166,0.1491,0.27483-0.035zm10.516-0.035c0-0.054-0.33214-0.092-0.77248-0.089-0.42487,0-0.77248,0.045-0.77248,0.094s0.34761,0.089,0.77248,0.089c0.43688,0,0.77248-0.041,0.77248-0.094zm-10.141-0.82792c0-0.1592-0.15261-0.1861-0.2414-0.043-0.07874,0.1273,0.03671,0.30791,0.15151,0.23701,0.04944-0.03,0.08989-0.118,0.08989-0.19451zm4.6054,0.089c-0.02447-0.024-0.49317-0.066-1.0415-0.092-0.96452-0.046-1.2252,0.027-0.51755,0.1444,0.37432,0.062,1.6316,0.02,1.5591-0.053zm-2.1914-0.035c0-0.053-0.07604-0.096-0.16898-0.095-0.14441,0-0.14792,0.015-0.02414,0.095,0.18222,0.1176,0.19312,0.1176,0.19312,0zm-23.658,1.12c0-0.1785,0.29466-0.28521,0.42572-0.1542,0.07396,0.074,0.06239,0.1298-0.04029,0.19461-0.20962,0.1324-0.38544,0.114-0.38544-0.041zm0.28968-0.66962c0-0.1823,0.0931-0.25251,0.2533-0.19111,0.10578,0.041,0.11207,0.084,0.02702,0.18631-0.14067,0.1693-0.28032,0.1717-0.28032,0.01zm0.40147-0.73022c-0.10056-0.062-0.09227-0.093,0.03877-0.143,0.19887-0.076,0.30812,0,0.18015,0.1311-0.05001,0.05-0.14852,0.055-0.21892,0.012zm0.34083-0.65062c-0.1166-0.1165-0.07189-0.20321,0.13236-0.25651,0.14545-0.038,0.19076-0.011,0.16898,0.1013-0.03324,0.17121-0.1996,0.25691-0.30134,0.1552zm20.968-0.034c-2.7503-0.088-1.6981-0.1738,2.3514-0.19261,2.1944-0.01,4.0984-0.023,4.2312-0.028,0.13277-0.01,0.56729,0,0.9656,0.021l0.7242,0.031-0.53108,0.094c-0.5881,0.1039-5.3791,0.1504-7.7412,0.075zm-20.648-0.76132c0-0.055,0.09078-0.1487,0.20174-0.20811,0.17277-0.092,0.19688-0.083,0.16788,0.068-0.03572,0.18541-0.36962,0.31201-0.36962,0.1402zm16.872,0.028c-0.01981-0.02-1.6624-0.044-3.6501-0.053-3.4274-0.016-3.5593-0.023-2.5519-0.1364,0.71099-0.08,1.9082-0.1029,3.621-0.07,1.4074,0.027,2.6674,0.04,2.8002,0.028,0.32794-0.03,0.87549-0.031,1.1105,0,0.10621,0.012,0.60591-0.1359,1.1105-0.32981,0.93611-0.35971,2.0601-0.57122,2.3136-0.43521,0.09192,0.049-0.02569,0.097-0.33796,0.1364-0.86054,0.1091-1.693,0.33461-2.2985,0.62272-0.50077,0.23821-0.71159,0.28241-1.3378,0.27991-0.40884,0-0.75955-0.019-0.77935-0.039zm-16.548-0.66592c-0.06092-0.1586,0.23843-0.45521,0.37457-0.37121,0.13939,0.086,0.07295,0.31691-0.12107,0.42071-0.15407,0.082-0.20682,0.072-0.25351-0.05zm3.5862-0.1454c-0.33904-0.06-0.35084-0.07-0.09656-0.082,0.15932-0.01,0.52367-0.043,0.80966-0.077,0.42247-0.051,0.51152-0.037,0.47489,0.073-0.05101,0.1533-0.5854,0.1921-1.188,0.086zm1.9794-0.061c0.31948-0.1469,1.478-0.40381,1.8706-0.41481,0.14685,0,0.15906,0.021,0.065,0.1344-0.12517,0.1506-0.77268,0.29671-1.6941,0.38211l-0.57935,0.054zm-5.1763-0.66892c0.03224-0.084,0.05861-0.17081,0.05861-0.19301,0-0.022,0.0869-0.04,0.19312-0.04,0.12874,0,0.19312,0.064,0.19312,0.193,0,0.1436-0.06437,0.19291-0.25173,0.19291-0.18987,0-0.23732-0.037-0.19312-0.1526zm3.947,0.086c0.09395-0.024,0.2243-0.023,0.28968,0,0.06537,0.026-0.0115,0.046-0.17081,0.044-0.15932,0-0.21281-0.024-0.11886-0.048zm2.2506-0.19701c1.214-0.1262,2.1118-0.1193,1.9593,0.015-0.01954,0.017-0.79594,0.055-1.7253,0.084l-1.6898,0.053zm8.2483-0.43611c-1.5666-0.04-3.3808-0.048-4.0313-0.017-0.75315,0.036-1.1828,0.021-1.1828-0.039,0-0.052,0.16294-0.1195,0.3621-0.1488,0.3064-0.045,5.0919-0.20141,5.6729-0.1851h1.0139c0.45142-0.0009,1.3639,0,2.0277,0,0.66385-0.0009,1.5112,0.038,1.8829,0.087,0.37176,0.049,1.2625,0.057,1.9794,0.018,0.71695-0.039,3.4466-0.085,6.0658-0.1023,3.9457-0.026,4.7951-0.01,4.9537,0.1024,0.10532,0.074,0.17645,0.179,0.15808,0.23411-0.03847,0.1153-6.8422,0.1328-10.767,0.028-1.8155-0.049-2.4381-0.037-2.4381,0.046,0,0.1182-0.18677,0.1174-5.697-0.023zm-14.195-0.1168c0-0.20881,0.37733-0.38901,0.5173-0.24701,0.08297,0.084,0.06384,0.1462-0.0771,0.25011-0.24144,0.1781-0.4402,0.1767-0.4402,0zm-8.28-0.71512c0.1459-0.174,0.2654-0.416,0.2654-0.539,0-0.1311,0.09931-0.28771,0.2414-0.38081,0.13277-0.087,0.2414-0.23631,0.2414-0.33191,0-0.096,0.10863-0.27591,0.2414-0.40051s0.2414-0.26911,0.2414-0.32111,0.16294-0.25491,0.3621-0.45101c0.19915-0.19601,0.41109-0.41731,0.47095-0.49162,0.059872-0.074,0.19023-0.20641,0.28968-0.29351,0.099452-0.087,0.42804-0.41271,0.73021-0.72362,0.30216-0.31081,0.79072-0.78232,1.0857-1.0476,0.29496-0.26531,0.56055-0.55622,0.59017-0.64642,0.02963-0.09,0.20372-0.25651,0.38685-0.36961,0.18314-0.1131,0.33297-0.26661,0.33297-0.34111,0-0.074,0.17381-0.25041,0.38624-0.39091,0.95144-0.62902,0.2173-0.52542-2.7462,0.38761-1.2772,0.39341-2.7162,0.73332-3.1049,0.73332-0.13894,0-0.38172,0.1086-0.53951,0.24121-0.44392,0.37321-0.60629,0.29491-0.49908-0.24061,0.049867-0.24921,0.14301-0.34361,0.48236-0.48891,0.23131-0.099,0.42176-0.23591,0.42322-0.30411,0.00523-0.24431,1.4987-1.3434,2.4052-1.7703,0.18251-0.086,0.46888-0.26071,0.6364-0.38831,0.16752-0.1277,0.47199-0.29011,0.67662-0.36081,0.49355-0.1708,0.55996-0.36301,0.0996-0.28841-0.18938,0.031-0.34433,0.032-0.34433,0,0-0.1528,0.70037-0.45941,1.03-0.45081,0.20356,0.01,0.54392-0.029,0.75635-0.076l0.38624-0.086-0.50683-0.075c-0.27875-0.041-0.53173-0.115-0.56216-0.1642-0.10995-0.1777,0.58207-0.35471,1.3104-0.33501,0.71487,0.019,1.301-0.073,1.3911-0.21811,0.02541-0.041-0.28804-0.06-0.69657-0.043-1.0923,0.047-1.1016,0.046-1.202-0.054-0.1754-0.17531,0.3095-0.31211,1.2167-0.34351,0.73604-0.025,1.3186-0.1496,1.3186-0.28101,0-0.014-0.30246-0.025-0.67213-0.025-0.76108,0-0.91539-0.079-0.62022-0.31831,0.17273-0.1399,0.39278-0.162,1.4233-0.1427,0.67044,0.013,1.2592,0.048,1.3084,0.078,0.04918,0.03,0.20451,0.012,0.3452-0.042,0.14069-0.053,0.54626-0.098,0.90128-0.099,0.35502-0.0008,0.7059-0.04,0.77972-0.086,0.14865-0.094-0.48578-0.1223-2.3551-0.105-1.5629,0.015-2.6559-0.083-2.4191-0.21521,0.09717-0.054,0.29015-0.1091,0.42884-0.1216,0.1387-0.012,0.5346-0.052,0.87981-0.087,0.3452-0.035,1.0605-0.025,1.5895,0.022,0.60273,0.054,1.0715,0.052,1.2553-0.01,0.16134-0.051,0.59751-0.1043,0.96926-0.1182,0.37176-0.014,1.0452-0.039,1.4967-0.055,0.73596-0.027,0.6761-0.037-0.57935-0.1009-0.77006-0.039-2.0154-0.064-2.7675-0.055-0.75205,0.01-1.3457-0.019-1.3192-0.062,0.02647-0.043-0.17293-0.049-0.44312-0.013-0.41201,0.055-0.49125,0.04-0.49125-0.088,0-0.23211,0.73509-0.40561,1.1241-0.26541,0.22981,0.083,0.41089,0.081,0.74734-0.01,0.35185-0.094,0.51255-0.094,0.77402,0.0006,0.2094,0.076,0.51851,0.096,0.8459,0.054,0.64338-0.081,1.4479-0.1209,2.4446-0.1221,1.0855,0,0.86184-0.097-0.34584-0.1484-1.207-0.051-1.5658-0.1254-1.4951-0.30971,0.06962-0.1813-0.03504-0.1667-0.2593,0.036-0.15073,0.1363-0.38494,0.1716-1.2146,0.1831-1.2159,0.017-2.2348-0.055-2.2348-0.1588,0-0.1274,0.87691-0.30671,1.0002-0.20451,0.0726,0.06,0.32962,0.043,0.73226-0.05,0.34122-0.079,0.73192-0.1139,0.86822-0.078,0.28313,0.074,2.9375,0.04,3.8688-0.05,0.25197-0.024,0.17827-0.049-0.28968-0.097-0.3452-0.035-0.86662-0.034-1.1587,0-0.29209,0.037-0.57158,0.044-0.62109,0.015-0.1186-0.071-1.9555-0.045-2.7826,0.038-0.54144,0.055-0.65178,0.041-0.65178-0.077,0-0.20541,0.35096-0.33731,1.2449-0.46791,0.43057-0.063,0.78286-0.1527,0.78286-0.1997s-0.27712-0.085-0.61582-0.085c-0.42186,0-0.65264-0.044-0.73272-0.1407-0.09685-0.1166-0.0699-0.1505,0.15715-0.19781,0.15073-0.031,0.44787-0.1091,0.66029-0.1728l0.38624-0.1158-0.3853-0.048c-0.48989-0.061-0.5402-0.27661-0.12294-0.52602l0.31513-0.1884-0.53108-0.083c-0.75521-0.1177-1.145-0.126-1.6415-0.035-0.69156,0.1272-0.35258-0.095,0.56164-0.36881,0.43744-0.1308,0.85872-0.30121,0.9362-0.37861,0.1894-0.18921,0.88388-0.32861,1.9848-0.39841,0.50094-0.032001,1.1498-0.1236,1.4418-0.20411,0.61885-0.17051,1.5094-0.45531,1.7864-0.57132,0.17201-0.072002,0.17864-0.063002,0.0606,0.082002-0.12626,0.1551-0.07791,0.21401,0.13252,0.1616,0.74904-0.18681,1.3197-0.23231,2.3174-0.18471,0.63729,0.030001,1.289,0.018001,1.4484-0.027001,0.15932-0.045001,0.49408-0.056002,0.74389-0.023001,0.24982,0.033001,0.51052,0.023001,0.57935-0.021001,0.07949-0.051002-0.08622-0.1083-0.4542-0.1562-0.65927-0.086003-0.48377-0.083003-2.8651-0.045001-0.99162,0.016-1.7821-0.01-1.7565-0.046001,0.11901-0.19231-0.49498-0.041001-1.0688,0.26261-0.37498,0.19881-0.76556,0.33451-0.94948,0.32981l-0.31243-0.01,0.32041-0.1398c0.17623-0.077002,0.5386-0.31211,0.80528-0.52272,0.51358-0.40561,0.93138-0.49351,1.1418-0.24031,0.08817,0.1062,0.16554,0.1176,0.30208,0.044001,0.10676-0.057002,0.83977-0.091003,1.7521-0.082002,1.3307,0.014,2.1186,0,4.1572-0.093003,0.48438-0.021001,0.16888-0.21281-0.35183-0.21361-0.27432-0.0004001-1.6456-0.022001-3.0472-0.049002-1.6341-0.031001-2.6513-0.012-2.8351,0.052002-0.26014,0.091003-0.27452,0.085003-0.15524-0.059002,0.28257-0.34041,0.65164-0.39981,1.8695-0.30061,0.7825,0.064002,1.5036,0.061002,2.2209-0.01,0.58419-0.056002,1.5152-0.1038,2.0688-0.1066,0.55364,0,1.0279-0.027001,1.0541-0.053002,0.13846-0.1383-0.22004-0.19291-1.3683-0.20841-0.69949-0.01-2.0892-0.039001-3.0881-0.067002-1.6262-0.045001-1.8602-0.031001-2.2361,0.1301-0.23094,0.099003-0.45979,0.25101-0.50856,0.33811-0.10158,0.18131-0.81315,0.37371-0.89471,0.24181-0.03095-0.050001-0.11289-0.048001-0.19556,0-0.20568,0.13-0.38369,0.113-0.38369-0.037001,0-0.1429,0.59935-0.35291,1.0074-0.35291,0.14343,0,0.3991-0.1032,0.56816-0.22931,0.55037-0.41041,0.95343-0.48031,2.3304-0.40381,1.75,0.097003,1.9149,0.095003,2.9346-0.038001,0.49617-0.065002,0.99586-0.096003,1.1105-0.070002,0.11456,0.026001,0.59937,0.015,1.0773-0.026001l0.86904-0.073002-1.1105-0.032001c-0.61074-0.018001-1.5233-0.048001-2.0277-0.067002-0.50453-0.019001-1.5409-0.037001-2.303-0.040001-0.76213,0-1.3487-0.039001-1.3035-0.080002,0.31992-0.29301,2.1474-0.40341,6.455-0.38991,0.42487,0,0.90283-0.038001,1.0621-0.087002,0.19398-0.060002-0.25929-0.077002-1.3721-0.051002-1.0573,0.024001-1.6837,0-1.722-0.059002-0.03365-0.054002-0.1528-0.067002-0.26946-0.027001-0.27821,0.093003-2.9876,0.046001-3.0878-0.054002-0.1611-0.1605,2.2905-0.34271,6.0906-0.45251,1.2885-0.037001,2.3314-0.078002,2.3174-0.091003-0.01396-0.013-1.09-0.052002-2.3911-0.088003-1.3011-0.035001-2.7351-0.1001-3.1864-0.1438-0.45142-0.044001-1.2662-0.057002-1.8105-0.029001-0.54436,0.028001-0.98974,0.027001-0.98974,0,0-0.19271,3.5225-0.36801,7.4351-0.37001,0.41438-0.0002,0.42109-0.01,0.14484-0.093003-0.15932-0.051002-0.94146-0.096003-1.7381-0.1-0.79661,0-1.6222-0.039001-1.8346-0.079002-0.33953-0.062002-0.28114-0.079002,0.48279-0.1393,0.47797-0.038001,1.3687-0.1147,1.9794-0.17141,0.61074-0.057002,1.5336-0.1253,2.0507-0.1524,0.51714-0.027001,0.91972-0.082002,0.89465-0.1229-0.02508-0.041001-0.31784-0.056002-0.65056-0.035001l-0.60497,0.039001,0.33796-0.18071c0.18588-0.099003,0.66376-0.23281,1.0619-0.29651,0.51226-0.082002,0.79465-0.18131,0.9656-0.33981,0.14877-0.138,0.51985-0.28851,0.9658-0.39181,0.39831-0.092003,0.87628-0.26411,1.0621-0.38191,0.48253-0.30581,1.1189-0.43971,2.0899-0.43971,0.87869,0,1.045-0.1542,0.22761-0.21101l-0.434-0.02695,0.676-0.20991c0.95967-0.29811,3.4972-0.41591,4.0431-0.18761,0.20564,0.086003,0.45333,0.1563,0.55041,0.1563,0.09709,0,0.21411,0.067002,0.26005,0.1491,0.06403,0.1143,0.36372,0.1685,1.2843,0.23211,1.261,0.087003,2.4479,0.29571,2.6112,0.45881,0.06442,0.064002-0.23917,0.1136-0.91145,0.1479-0.55442,0.028001-1.089,0.1006-1.188,0.1606-0.13805,0.084002,0.15981,0.1033,1.2783,0.084002,1.6091-0.028001,1.6952,0,1.9363,0.57362,0.18402,0.43981,0.1635,0.47831-0.11552,0.21641-0.23303-0.21881-0.32241-0.23241-1.7718-0.26921-1.0933-0.028001-1.5897-0.01-1.7495,0.080002-0.27476,0.1469-0.14929,0.23471,0.48372,0.33841,0.23898,0.039001,0.54315,0.12,0.67592,0.17971,0.19676,0.088003-0.02639,0.1181-1.207,0.1607l-1.4484,0.052002,1.9102,0.020001c1.959,0.021001,2.3733,0.089003,2.6641,0.43931,0.12135,0.1462,0.06842,0.1601-0.62764,0.1646-0.41809,0-1.0643,0.048001-1.436,0.1002-0.37176,0.052002-0.84972,0.1196-1.0621,0.1496-0.60538,0.085003-0.97005,0.50532-1.1612,1.3371-0.064,0.287-0.065,0.2876-0.152,0.0612-0.072-0.1884-0.112-0.2074-0.23-0.1091-0.07889,0.065002-0.19375,0.28671-0.25525,0.49181-0.0615,0.20511-0.19206,0.44541-0.29013,0.53412-0.12125,0.1096-0.1783,0.29541-0.1783,0.58042,0,0.37981-0.02208,0.41921-0.23512,0.41921-0.3988,0-0.65852,0.156-1.3133,0.78892-1.0008,0.96723-1.2237,1.3043-1.3649,2.0641-0.10435,0.56112-0.13314,0.62202-0.17933,0.37901l-0.05502-0.28941-0.20823,0.38591-0.20823,0.38591-0.0043-0.52142c-0.0041-0.50582-0.0098-0.51652-0.18737-0.35591-0.1412,0.1277-0.19322,0.1366-0.22729,0.039-0.06356-0.182-0.38121,0.1175-0.99155,0.93473-0.2774,0.37141-0.60149,0.76222-0.72019,0.86833-0.11871,0.1061-0.29418,0.34631-0.38993,0.53372-0.09575,0.1875-0.28379,0.39951-0.41787,0.47121-0.13408,0.072-0.2961,0.25651-0.36005,0.41081-0.06395,0.1542-0.35644,0.48491-0.64996,0.73482-0.29353,0.24981-0.65491,0.62092-0.80307,0.82452-0.2584,0.35521-0.73388,0.74362-1.7748,1.4498-0.26554,0.1802-0.56755,0.42181-0.67112,0.53692-0.25339,0.28171-1.7672,1.0131-2.1291,1.0287-0.50822,0.022-1.4745,0.27881-1.6576,0.44071-0.09736,0.086-0.36812,0.1877-0.6017,0.22601-0.51994,0.085-1.072,0.30761-1.072,0.43171,0,0.05-0.13285,0.24301-0.29523,0.42781-0.28648,0.32601-0.29044,0.34321-0.13373,0.58222,0.09991,0.1523,0.11985,0.24621,0.0523,0.24621-0.06005,0,0.03272,0.1296,0.20616,0.28801,0.23426,0.21391,0.2836,0.30891,0.1919,0.36921-0.0907,0.06-0.06027,0.1099,0.11475,0.18961,0.131,0.06,0.28622,0.19811,0.34492,0.30771,0.09082,0.1695,0.07371,0.21191-0.11475,0.28381-0.21606,0.082-0.21439,0.086,0.06819,0.1561,0.29178,0.072,0.62764,0.30501,0.62764,0.43531,0,0.039-0.09777,0.1036-0.21726,0.1444-0.19849,0.068-0.19058,0.077,0.0916,0.1135,0.19969,0.025,0.41196,0.1566,0.60055,0.37121,0.26564,0.30231,0.33884,0.33191,0.82002,0.33191,0.29058,0,0.55193,0.038,0.58078,0.085s0.24438,0.063,0.47896,0.037c0.36426-0.041,0.44263-0.018,0.53706,0.1584,0.06081,0.1135,0.09101,0.23811,0.0671,0.27681-0.02391,0.039-0.4713,0.046-0.9942,0.016s-1.1028-0.03-1.2886,0c-0.18587,0.03-1.3156,0.01-2.5105-0.044-1.9473-0.088-2.0974-0.1057-1.4484-0.1751,1.1669-0.1248,1.1796-0.1305,1.0113-0.45581-0.20901-0.40381-0.17886-0.47741,0.19572-0.47741,0.48277,0,0.41789-0.159-0.09631-0.23611-0.53602-0.08-0.78434-0.39631-0.38928-0.49532,0.30098-0.076,0.2384-0.1981-0.14395-0.28201-0.15915-0.035-0.33246-0.1439-0.38514-0.24221-0.1328-0.24801-0.12474-0.26901,0.1215-0.31631,0.16534-0.032,0.14583-0.045-0.08159-0.055-0.27081-0.012-0.61846-0.25791-0.61846-0.43751,0-0.19771-0.60665-0.91423-0.86425-1.0208-0.2491-0.1031-0.29446-0.17401-0.29446-0.46031v-0.33841l-0.49069,0.065c-0.46453,0.062-0.48733,0.054-0.42759-0.1336,0.06303-0.19841,0.06249-0.19841-0.45077,0.011-0.28262,0.1155-0.66595,0.23001-0.85182,0.25461-0.18587,0.025-0.37498,0.1085-0.42024,0.1864-0.04525,0.078-0.22992,0.20331-0.41038,0.27861-0.18046,0.075-0.3281,0.17851-0.3281,0.22921,0,0.076-0.39379,0.36361-1.2311,0.89893-0.28887,0.1846-0.09191-0.27011,0.41993-0.96963,0.14834-0.20271,0.14775-0.21701-0.0089-0.21701-0.09225,0-0.30395,0.1467-0.47043,0.32611-0.16649,0.17941-0.51996,0.43581-0.7855,0.56992-0.72951,0.36831-1.2325,0.76712-1.6503,1.3087-0.251,0.32531-0.51284,0.54252-0.78161,0.64832-0.2223,0.088-0.4262,0.21651-0.45314,0.28661-0.02693,0.07-0.27957,0.27641-0.56142,0.45851s-0.61423,0.44171-0.73861,0.57692c-0.17346,0.1886-0.36069,0.26151-0.8036,0.31281-0.36439,0.042-0.59713,0.1182-0.63079,0.20591-0.02934,0.076-0.26275,0.24491-0.51867,0.37451-0.25593,0.1295-0.50035,0.29421-0.54317,0.36601-0.04281,0.072-0.28055,0.24781-0.52831,0.39131-0.24776,0.1436-0.49927,0.31981-0.55893,0.39161-0.05966,0.072-0.51822,0.33381-1.019,0.58212-0.83309,0.41311-0.97857,0.45381-1.7102,0.47851-0.43982,0.015-0.88657,0.064-0.99279,0.1081-0.16076,0.068-0.14863,0.028,0.072419-0.23491zm21.07-3.2841c0.07337-0.1186-0.26726-0.89573-0.46422-1.059-0.08692-0.072-0.15803-0.21161-0.15803-0.31001,0-0.098-0.10863-0.25001-0.2414-0.33691-0.13277-0.087-0.2414-0.23691-0.2414-0.33331,0-0.096-0.13035-0.26801-0.28968-0.38141-0.15932-0.1133-0.28968-0.26131-0.28968-0.32891,0-0.1403-0.74224-0.92523-0.87498-0.92523-0.0482,0,0.08531,0.22791,0.2967,0.50642,0.21138,0.27861,0.38453,0.59662,0.38476,0.70682,0.000199,0.1101,0.11152,0.30451,0.24732,0.43201,0.14632,0.1373,0.22869,0.30131,0.20219,0.40261-0.02894,0.1105,0.05429,0.24131,0.2359,0.37051,0.15434,0.1098,0.28061,0.25581,0.28061,0.32441,0,0.1373,0.68395,1.0188,0.79092,1.0193,0.0367,0.0002,0.09115-0.039,0.12101-0.087zm-13.754-6.6638c-0.3452-0.036-0.69282-0.031-0.77248,0.012-0.08134,0.043,0.19382,0.072,0.62764,0.065l0.77248-0.012zm2.9366-1.1185c0.70801-0.047,0.91261-0.089,0.78608-0.1597-0.10406-0.058-0.52248-0.069-1.0686-0.028-0.60472,0.045-0.96404,0.032-1.1013-0.042-0.23636-0.1264-0.84244-0.04-0.90747,0.1292-0.05573,0.1451,0.96005,0.18971,2.2912,0.1006zm2.8087-0.90933c-0.4225-0.1074-0.94408-0.1074-1.1105,0-0.09953,0.064,0.09679,0.09,0.62764,0.084,0.5591-0.01,0.69246-0.03,0.48279-0.084zm2.752-2.8822c0.37088-0.072,0.39209-0.088,0.14484-0.1054-0.15932-0.012-0.60198-0.017-0.98367-0.012-0.3817,0.01-0.71846-0.03-0.74837-0.079-0.03145-0.051-0.27956-0.029-0.58848,0.052-0.29376,0.077-0.57562,0.1137-0.62637,0.082-0.05074-0.031-0.3644-0.024-0.697,0.017-0.54622,0.066-0.57204,0.079-0.26677,0.1308,0.47105,0.08,3.2387,0.017,3.7658-0.086zm1.207-0.67062,1.1587-0.068-1.3518-0.089c-1.5803-0.1035-3.0991-0.1078-3.4899-0.01l-0.27567,0.069,0.22072,0.118c0.22958,0.1228,1.4224,0.1163,3.738-0.02zm-4.2003-0.1134c0-0.1228-0.38905-0.1228-0.57936,0-0.10774,0.07-0.05208,0.094,0.21726,0.095,0.19915,0.0008,0.3621-0.042,0.3621-0.095zm0.23169-0.57512c0.13435-0.051,0.26725-0.056,0.29535-0.01,0.0281,0.045,0.76615,0.076,1.6401,0.069,1.2079-0.011,1.6192-0.046,1.7145-0.1464,0.1061-0.1121,0.0085-0.1225-0.63151-0.068-0.56606,0.049-0.73943,0.037-0.68734-0.048,0.07795-0.1261-0.53766-0.086-0.86478,0.056-0.14077,0.061-0.16602,0.05-0.10592-0.047,0.06214-0.1005-0.0012-0.1162-0.29798-0.074-0.20729,0.029-0.46005,0.087-0.5617,0.1275-0.12988,0.052-0.16407,0.041-0.115-0.039,0.0452-0.073-0.0048-0.1129-0.14194-0.1129-0.32869,0-0.95792,0.21211-0.90121,0.30381,0.06731,0.1088,0.35518,0.1041,0.65735-0.011zm5.6375-0.075c-0.25048-0.02-0.685-0.02-0.9656-0.0005-0.28059,0.02-0.07566,0.036,0.45542,0.036,0.53108,0.0003,0.76066-0.016,0.51017-0.036zm-3.469-0.72372c0.24682-0.1035,0.23824-0.1103-0.22626-0.17871-0.98567-0.1451-1.6032-0.095003-2.2691,0.18241-0.21148,0.088003,1.0155,0.19531,1.6747,0.1461,0.31032-0.023001,0.67966-0.091003,0.82075-0.1498zm1.361,0.031001c0.30875-0.1643,0.31745-0.18121,0.12435-0.24251-0.1142-0.036001-0.29332-0.020001-0.39805,0.036001s-0.28018,0.1018-0.38988,0.1018c-0.19787,0-0.2588,0.1016-0.13509,0.22521,0.11331,0.1132,0.457,0.061002,0.79868-0.1205zm2.1786,0.061002c0.83542,0.01,0.84663,0.01,0.28968-0.069002-1.1677-0.1539-2.1726-0.099003-2.1726,0.1193,0,0.063002,0.17796,0.070002,0.50694,0.020001,0.27881-0.043001,0.89801-0.074002,1.376-0.070002zm0.13667-0.70262c0.65935-0.023001,1.2161-0.059002,1.2373-0.081002,0.08042-0.080002-2.2311-0.17571-2.6611-0.1098-0.248,0.038001-0.51608,0.059002-0.59574,0.048001-0.07966-0.012-0.51418-0.030001-0.9656-0.040001s-0.9157-0.050002-1.0317-0.088003c-0.18772-0.062002-1.2856,0.17931-1.2856,0.28231,0,0.022001,0.70609,0.028001,1.5691,0.014,0.863-0.014,1.6994,0.01,1.8587,0.041001,0.15932,0.036001,0.37658,0.046001,0.48279,0.021001,0.10621-0.025001,0.73259-0.064002,1.392-0.087003zm2.2291-0.81422c0.23656-0.076002,0.23559-0.077002-0.04828-0.085002-0.15932,0-0.35486,0.034001-0.43452,0.085002-0.11932,0.077002-0.11082,0.092003,0.04828,0.085002,0.10621,0,0.30175-0.043001,0.43452-0.085002zm4.128-2.0962c-0.19915-0.021001-0.52504-0.021001-0.7242,0-0.19915,0.021001-0.03621,0.038001,0.3621,0.038001s0.56126-0.017,0.36209-0.038001zm1.6441-0.77172c-0.19775-0.021001-0.54537-0.021001-0.77248-0.0007001-0.22711,0.020001-0.06532,0.037001,0.35954,0.038001,0.42486,0.0004,0.61068-0.016,0.41292-0.037001zm2.3653-1.1592c-0.32972-0.019001-0.89459-0.019001-1.2553-0.0003-0.36068,0.019001-0.09092,0.034001,0.59948,0.034001,0.6904,0.0002,0.9855-0.015001,0.6558-0.034001zm1.9915-1.0262c-0.09195-0.083003-2.6956-0.1324-2.6956-0.051001,0,0.048001,0.61492,0.087003,1.3679,0.087003,0.75236,0,1.3498-0.016001,1.3277-0.036001zm-0.57131-0.73422,1.5932-0.064002-1.7622-0.017c-1.5612-0.015001-1.7622,0.0007-1.7622,0.138,0,0.1117,0.04729,0.1343,0.16898,0.081002,0.09294-0.041001,0.88594-0.103,1.7622-0.138zm4.9144-0.73072c0.02413-0.024001-1.0174-0.037001-2.3145-0.028001-1.3023,0.01-2.2071,0.048001-2.0204,0.087002,0.3466,0.073002,4.256,0.020001,4.335-0.059002zm-27.027,24.998c0-0.19431,0.06073-0.24821,0.33796-0.30021,0.35866-0.067,0.46611-0.23481,0.15054-0.23481-0.36413,0-0.33026-0.26251,0.06037-0.46791,0.2603-0.1369,1.1892-0.1472,1.1892-0.013,0,0.054-0.19554,0.1926-0.43452,0.30861-0.23898,0.1161-0.43452,0.24571-0.43452,0.28821,0,0.043,0.70609,0.083,1.5691,0.09l1.5691,0.013-1.6168,0.1207c-1.1645,0.087-1.6836,0.1644-1.8553,0.27691-0.34666,0.22701-0.53504,0.19861-0.53504-0.081zm16.59,0.1864c-0.02776-0.028-1.3929-0.069-3.0336-0.092-3.097-0.043-5.657-0.1337-5.7269-0.20351-0.02221-0.022,0.32534-0.042,0.77233-0.045,0.44699,0,1.3341-0.031,1.9714-0.064,0.63729-0.033,2.1871-0.064,3.4439-0.068,1.2569,0,2.3178-0.04,2.3577-0.08,0.18-0.1797-0.20144-0.21521-2.0204-0.18811-1.0706,0.016-2.9459-0.037-4.1674-0.1168-1.6054-0.1054-2.9768-0.1293-4.9486-0.086-1.9633,0.043-2.7278,0.03-2.7278-0.047,0-0.076,1.1778-0.1064,4.128-0.1059,2.2703,0.0004,4.671-0.046,5.335-0.1042,0.7039-0.061,1.835-0.078,2.7137-0.041,1.0837,0.046,1.5258,0.034,1.5745-0.045,0.03988-0.064-0.0315-0.1549-0.17314-0.21941-0.17838-0.081-0.67529-0.083-1.9125-0.01-1.1534,0.071-1.8212,0.072-2.1543,0-0.28445-0.059-2.3425-0.1054-5.0094-0.114-4.5114-0.015-4.5242-0.015-3.8141-0.18101,0.39268-0.092,0.88586-0.1438,1.0988-0.1162,0.63709,0.083,4.4257,0.084,6.1316,0,2.7001-0.1295,5.5699-0.099,5.7694,0.062,0.08266,0.067,0.16702,0.059,0.26764-0.025,0.12978-0.1076,0.12415-0.1378-0.04828-0.25841-0.10737-0.075-0.19523-0.22371-0.19523-0.33011,0-0.17571,0.04189-0.18731,0.45866-0.1268,0.56538,0.082,0.57009,0.086,0.33074,0.29081-0.19284,0.165-0.19185,0.1683,0.11152,0.37261,0.40487,0.27261,0.39324,0.47241-0.03187,0.54742l-0.33796,0.06,0.41378,0.013c0.53858,0.017,0.92139,0.25971,0.85087,0.54042-0.04243,0.1689,0.01013,0.22991,0.28308,0.32851,0.22531,0.081,0.33518,0.1823,0.33518,0.30781,0,0.1726-0.0755,0.18671-0.99778,0.18671-0.54878,0-1.0204-0.023-1.0482-0.05zm1.1508-0.58672c-0.03209-0.032-0.11538-0.035-0.18507-0.01-0.07703,0.031-0.05415,0.054,0.05834,0.058,0.10178,0,0.15882-0.019,0.12674-0.051zm7.7509,0.60742c-0.02655-0.027-1.4171-0.081-3.0899-0.1195-2.9685-0.068-4.3621-0.20171-2.5588-0.24571,0.47797-0.012,1.0863-0.036,1.3518-0.053,0.26553-0.018,2.6771-0.044,5.359-0.058,3.9384-0.021,4.9459-0.0008,5.2383,0.106,0.19915,0.073,0.3621,0.1686,0.3621,0.21321,0,0.044-1.184,0.082-2.6313,0.084-1.4472,0-2.9354,0.03-3.3072,0.063-0.37176,0.033-0.69764,0.038-0.7242,0.01zm-3.7658-0.84002c-2.5343-0.082-3.5955-0.27871-1.4001-0.26021,0.74351,0.01,2.9444-0.026,4.891-0.072,2.7828-0.065,3.697-0.056,4.2775,0.043,1.3631,0.23301,0.71459,0.32031-2.5263,0.34001-1.6883,0.01-4.0472-0.013-5.2421-0.051zm-19.57-0.1593c0.03541-0.035,0.09334-0.035,0.12874,0,0.03541,0.035,0.0064,0.064-0.06437,0.064-0.07081,0-0.09978-0.029-0.06437-0.064zm18.555-0.62752c-0.42487-0.048-0.9508-0.066-1.1687-0.039-0.21795,0.026-0.56556,0.017-0.77248-0.021-0.33645-0.061-0.29457-0.076,0.39627-0.1345,0.42487-0.036,2.3626-0.097,4.306-0.1343,3.247-0.063,3.5784-0.054,4.0853,0.105,0.37079,0.1165,0.51023,0.19961,0.42535,0.25341-0.16802,0.1065-6.2876,0.081-7.2717-0.03zm-11.538-0.67352c-0.61074-0.047-1.8057-0.066-2.6553-0.041-1.5198,0.044-1.5379,0.043-1.1105-0.1131,0.3311-0.1207,0.81487-0.1613,2.0327-0.1704,0.87902-0.01,1.6563-0.048,1.7273-0.092,0.07099-0.044,1.6093-0.077,3.4184-0.074,3.0335,0.01,3.2991,0.019,3.4145,0.1771,0.24407,0.33351,0.38022,0.31641-2.5302,0.31831-1.0621,0.0007-2.105-0.01-2.3174-0.015-0.21243-0.01-0.49486,0.01-0.62764,0.04-0.13277,0.03-0.74109,0.017-1.3518-0.031zm12.531,0.057c-0.02974-0.03-0.82915-0.076-1.7765-0.1027-1.5956-0.045-1.8734-0.072-1.7663-0.1694,0.06987-0.064,4.4286-0.22831,5.689-0.21481,0.91618,0.01,1.3349,0.058,1.7381,0.19831,0.47974,0.1674,0.50774,0.192,0.28968,0.25441-0.2854,0.082-4.0953,0.1129-4.1739,0.034zm-4.4198-0.86973c0.3452-0.078,1.1925-0.16,1.8829-0.1828,0.6904-0.023,1.7115-0.071,2.2691-0.1059,1.0637-0.068,1.8518,0.027,2.4247,0.29011,0.30197,0.1388,0.11829,0.1455-2.3764,0.087-2.7709-0.066-3.2438-0.064-4.2487,0.01l-0.57935,0.043zm8.4-23.667c-0.32115-0.059002-0.32595-0.066002-0.09656-0.1307,0.4635-0.1317,2.0733-0.082002,2.2748,0.070002,0.16843,0.1273,0.08459,0.1407-0.82644,0.132-0.55763-0.01-1.1659-0.038001-1.3518-0.072002z" fill="#000"/>
	<g style="word-spacing:0px;letter-spacing:0px;" font-weight="normal" transform="matrix(0.08152072,0,0,0.09349153,-14.43111,-4.2314103)" font-style="normal" font-stretch="normal" font-size="200.12593079px" font-variant="normal" font-family="Monospace" line-height="125%" fill="#000">
		<path d="m237.14,501.38c0,39.825,33.621,63.04,71.045,63.04,18.211,0,34.422-6.2039,35.622-9.2058,1.0006-2.2014,3.8024-8.2052,3.8024-18.612,0-0.8005-1.4009-1.601-2.4015-1.601-2.0012,0-3.8024,3.6023-8.4053,9.4059-4.803,6.0038-12.608,14.009-30.019,14.009-31.62,0-48.43-28.018-48.43-55.635,0-37.424,24.816-61.239,50.031-61.239,26.617,0,29.419,19.212,35.622,19.212,1.4009,0,1.4009-0.60038,1.4009-2.4015,0-17.011-0.20014-17.811-17.811-20.813-7.2045-1.4009-16.811-2.0013-19.612-2.0013-48.23,0-70.845,33.221-70.845,65.841" fill="#000"/>
	</g>
	<path d="m48.637,43.68c0,2.9453-0.85715,4.2076-3.1484,4.2076-2.1593,0-2.8847-1.1475-2.8847-3.4808,0-1.071,0-5.929,0.16484-6.7897,0.06594-0.36341,0.41209-0.47822,0.69231-0.51642,0.52747,0,0.72527,0,0.72527-0.32511,0-0.21041-0.31319-0.28691-0.41209-0.28691-0.7912,0-1.1209,0.077-1.8461,0.077-0.69231,0-1.2198-0.077-1.9121-0.077-0.26374,0-0.36263,0.096-0.36263,0.36341,0,0.22951,0.37912,0.22951,0.90659,0.24861,0.62638,0.019,0.69231,0.38251,0.69231,1.3388,0,1.6639-0.06593,3.347-0.06593,5.6039,0,2.8498,0.42857,4.4946,3.6923,4.4946,3.6593,0,4.4176-1.683,4.4176-4.8006v-5.5848c0-0.89893,0.36264-0.95633,0.95604-1.0519,0.32967-0.057,0.54396,0,0.54396-0.30601,0-0.1721-0.08242-0.30601-0.31319-0.30601-0.47803,0-0.97253,0.077-1.4505,0.077-0.46154,0-0.95604-0.077-1.4176-0.077-0.1978,0-0.34616,0.096-0.34616,0.24861,0,0.36341,0.2967,0.30601,0.56045,0.36341,0.60989,0.1339,0.80769,0.1721,0.80769,1.071v5.5083" fill="#000"/>
	<path d="m24.538,47.012c0,0.68462-0.36808,0.84112-0.73617,0.89983-0.36809,0.078-0.7515,0.039-0.7515,0.37161-0.01534,0.21521,0.1687,0.25431,0.24539,0.25431,0.73617,0,1.4263-0.078,2.1318-0.078,0.56746,0,1.1502,0.078,1.7177,0.078,0.06135,0,0.39876-0.02,0.39876-0.25431,0-0.27381-0.33741-0.29341-0.61348-0.37161-1.0736-0.27381-1.0736-0.43031-1.0736-1.4083v-3.384c0-0.37161,0-0.52812,0.4601-0.52812,0.39876,0,0.81285,0.25431,0.96623,0.58682l2.2545,5.0662c0.07668,0.176,0.13803,0.176,1.3803,0.176,0.49078,0,0.7515,0.02,1.3957,0.02,0.10736,0,0.15337-0.078,0.15337-0.176,0-0.21521-0.30673-0.23471-0.72083-0.35211-0.76684-0.23471-1.0736-0.68462-1.365-1.2714l-1.8087-3.7961c-0.07668-0.1565-0.12269-0.23471-0.12269-0.33251,0-0.29341,1.6564-1.0171,1.6564-3.0123,0-2.4255-1.5491-3.0123-2.822-3.0123-0.69016,0-1.3957,0.078-2.0859,0.078-0.4601,0-1.6564-0.078-1.7791-0.078-0.13803,0-0.33741,0.078-0.33741,0.31301,0,0.27381,0.36809,0.29341,0.53678,0.31291,0.55213,0.059,0.92021,0.1565,0.92021,0.56732v9.3303m1.3189-9.3303c0-0.60642,0.38342-0.60642,0.52146-0.60642,1.2423,0,2.4079,0.46941,2.4079,2.406,0,2.4451-1.1809,2.6016-2.0705,2.6016-0.72083,0-0.85887-0.059-0.85887-0.23471v-4.1686" fill="#000"/>
	<path d="m35.875,45.068c-0.06421,0.1906-0.2087,0.20971-0.28896,0.20971-0.04816,0-0.22474-0.26691-1.0434-2.7264l-1.6374-4.8998c-0.01605-0.057-0.03211-0.1144-0.03211-0.17161,0-0.40041,0.33712-0.38131,0.65818-0.38131,0.30502,0,0.64212-0.038,0.64212-0.36221,0-0.20971-0.35317-0.24791-0.46555-0.24791-0.5137,0-1.0434,0.076-1.5571,0.076-0.61002,0-1.22-0.076-1.83-0.076-0.09632,0-0.40133,0.057-0.40133,0.22881,0,0.30501,0.27291,0.32411,0.56186,0.38131,0.30501,0.057,0.64214,0.1335,0.78661,0.47661l3.7243,10.695c0.04816,0.1144,0.09632,0.26691,0.22474,0.26691,0.09632,0,0.16053-0.057,0.19264-0.1525l3.2106-9.3421c0.54581-1.5824,0.62608-1.7922,1.493-1.9447,0.11238-0.019,0.12842-0.1525,0.12842-0.28601,0-0.1715-0.09632-0.32411-0.2408-0.32411-0.16053,0-1.0114,0.076-1.493,0.076-0.61002,0-1.1238-0.076-1.6856-0.076-0.09632,0-0.27291,0.057-0.27291,0.36231,0,0.1144,0.09632,0.20971,0.22474,0.24781,0.46555,0.1525,1.3163,0.095,1.3163,0.66732,0,0.076-0.01605,0.1716-0.03211,0.22881l-2.1833,7.0732" fill="#000"/>
	<path d="m13.77,42.512c0,3.5735,2.1092,6.0246,4.8917,6.0246,3.665,0,5.0861-3.4427,5.0861-6.0994,0-2.5446-1.4959-5.9498-5.0113-5.9498-2.8572,0-4.9664,2.6569-4.9664,6.0247m1.5856,0.037c0-3.9478,1.7053-5.5008,3.3209-5.5008,2.3785,0,3.4855,2.6943,3.4855,5.1079,0,0.93543-0.13464,5.8188-3.4257,5.8188-1.2267,0-3.3808-1.16-3.3808-5.4259" fill="#000"/>
	<path d="m52.916,47.802c-0.65125,0-0.83493-0.63122-0.51766-1.2625l1.3025-2.6564c0.151-0.343,0.251-0.501,0.402-0.159l1.0687,2.4987c0.33397,0.81542,0.06679,1.4992-0.80154,1.5781-0.15029,0.026-0.15029,0.65762,0,0.65762,0.70134,0,1.219-0.1052,2.0205-0.1052,0.58445,0,0.81824,0.1052,1.5029,0.1052,0.16699,0,0.15029-0.63132,0-0.65762-0.55105-0.1315-1.0186-0.71012-1.386-1.5781l-1.7199-3.9453c-0.15029-0.34191-0.11689-0.34191,0.0501-0.68382l1.7032-3.2352c0.36737-0.68382,0.63455-1.0784,1.2524-1.2888,0.15029-0.053,0.16699-0.71012,0-0.65752-0.58445,0.21041-0.93513,0.23671-1.5363,0.23671-0.48426,0-0.60116-0.079-0.96852-0.079-0.13359,0-0.16699,0.63122,0,0.65752,0.46756,0.079,0.61785,1.0258,0.36737,1.4992l-1.1856,2.262c-0.18368,0.34191-0.13359,0.28931-0.28388-0.053l-0.934-2.052c-0.26718-0.55232-0.55105-1.6307,0.33397-1.6834,0.16699,0,0.16699-0.63122,0-0.63122-0.36737,0-1.0353,0.1315-1.6866,0.1052-0.58446,0-1.0353-0.1578-1.4695-0.21041-0.15029-0.026-0.16699,0.63122,0,0.65752,0.78484,0.079,0.88503,0.36821,1.2023,1.0521l1.8202,4.0242c0.15029,0.34191,0.11689,0.57862-0.11689,1.0258l-1.4027,2.7617c-0.51766,0.99953-0.86833,1.5781-1.7199,1.8149-0.16699,0.053-0.15029,0.65752,0,0.65752,0.68464,0,0.83493-0.1315,1.386-0.1315,0.50096,0,0.63455,0.1315,1.3192,0.1315,0.16699,0,0.16699-0.65752,0-0.65752" fill="#000"/>
	<path fill="#000" d="m27.62,50.994c-1.5132-0.1643-2.1994-0.17801-6.566-0.131-3.5043,0.038-5.5146,0.016-7.1454-0.078-1.481-0.085-2.774-0.105-3.719-0.057-5.0051,0.255-6.4374,0.295-8.2328,0.232l-1.9572-0.068,0.35973-0.398,0.35973-0.39781,8.453,0.027c4.6491,0.015,11.147,0.098,14.439,0.1847,3.2927,0.087,6.1604,0.1555,6.3729,0.1527h1.6415c0.6904,0,1.4508-0.012,1.6898-0.029,0.66031-0.049,5.3699-0.052,6.0832,0,0.3452,0.023,2.5612-0.033,4.9246-0.124,3.2609-0.126,5.9848-0.1593,11.298-0.1384l7.0005,0.028,0.55522,0.37541c0.30537,0.20651,0.55522,0.38221,0.55522,0.39051,0,0.059-25.249-0.1284-26.602-0.19751-2.1866-0.1118-5.0505,0.001-6.4622,0.25491-0.58019,0.1043-1.1234,0.18411-1.207,0.17741-0.08365-0.01-0.9125-0.095-1.8418-0.19581z"/>
	<path d="m2.8135,56.723c0.12574,0.03209,0.2972,0.09626,0.36578,0.43315,0.022862,0.06418,0.080015,0.30481,0.20575,0.30481,0.068584,0,0.080014-0.09625,0.068584-0.19251-0.022862-0.56149-0.034292-1.0588,0-1.6203,0.01143-0.09625-0.057154-0.17647-0.10288-0.17647-0.034292,0-0.13717,0.16042-0.16003,0.20855-0.034292,0.14438-0.068584,0.19251-0.13717,0.28876-0.091446,0.1123-0.21718,0.16042-0.34292,0.16042h-0.99447c-0.068584,0-0.080015-0.12834-0.080015-0.24064,0-0.54544,0.01143-0.60962,0.022862-1.139,0.01143-0.30481,0.057154-0.754,0.068584-0.85025,0.01143-0.14438,0.10288-0.28876,0.19432-0.28876h1.2117c0.19432,0,0.34292,0.06416,0.48009,0.28876,0.080014,0.1123,0.17146,0.36898,0.22861,0.60961,0.022862,0.08022,0.034292,0.1123,0.091445,0.1123,0.045723,0,0.12574-0.03208,0.12574-0.09625,0-0.38502-0.068584-1.0588-0.12574-1.4759-0.01143-0.08022-0.091446-0.09625-0.13717-0.09625-0.20575-0.01604-1.646,0.04812-2.6862,0.04812-0.36578,0.01604-0.5944-0.03208-0.92589-0.03208-0.10288,0-0.068584,0.32085,0,0.33689,0.30863,0.12834,0.34292,0.1123,0.49152,0.35293,0.091446,0.12834,0.10288,0.49732,0.10288,0.80212v4.4598c0,0.27272-0.080015,0.43315-0.21718,0.59357-0.17146,0.22459-0.26291,0.24064-0.51438,0.33689-0.068584,0.01604-0.057153,0.38502,0,0.38502,0,0,0.83444-0.09625,1.2231-0.09625,0.77729,0,1.6917,0.08022,2.7777,0.08022,0.080014,0,0.091446-0.09625,0.10288-0.19251,0.068584-0.35293,0.16003-0.94651,0.19432-1.3797,0-0.08022-0.057154-0.1123-0.10288-0.12834-0.080014,0-0.13717,0.01604-0.17146,0.1123-0.057154,0.17647-0.22861,0.57753-0.36578,0.73796-0.10288,0.1123-0.51438,0.19251-0.54867,0.19251h-1.0059c-0.34292,0-0.48009-0.36898-0.49152-0.81817-0.01143-0.62566-0.022862-1.0909-0.022862-1.7647,0-0.19251,0.080015-0.24064,0.19432-0.27272,0.37721-0.08022,0.66298-0.04812,0.98304,0.01604" fill="#000"/>
	<path d="M8.997,59.498c-0.16-0.176-0.2629-0.321-0.2629-0.77v-4.6844c0-0.44919,0.35435-0.62566,1.0059-0.62566,1.2688,0.01604,2.0004,1.6524,2.0004,2.8876,0,1.3957-0.25148,2.1818-0.51438,2.5828-0.21718,0.32085-0.53724,0.77004-1.2459,0.77004-0.49152,0-0.82301,0.01604-0.98304-0.16043m0.9372,0.737c0.97161,0,1.7832-0.6417,2.1604-1.3155,0.26291-0.46523,0.60583-1.1871,0.61726-2.5026,0.01143-1.8609-0.98304-3.4973-3.0063-3.4973-0.20575,0-1.1774,0.1123-1.4631,0.1123-0.36578,0-0.61726-0.03209-0.93732-0.03209-0.11431,0-0.057154,0.36898,0.01143,0.40106,0.28577,0.1123,0.30863,0.12834,0.45723,0.36898,0.080015,0.12834,0.10288,0.49732,0.10288,0.80212v4.1871c-0.01143,0.28876-0.080015,0.46523-0.21718,0.65774-0.16003,0.22459-0.27434,0.30481-0.49152,0.38502-0.057154,0.01604-0.057154,0.38502,0,0.38502,0.20575,0,0.72013-0.04812,1.1888-0.04812,0.60583,0.01604,1.4288,0.09625,1.5774,0.09625" fill="#000"/>
	<path d="m17.464,54.14c0-0.19251,0.06858-0.33689,0.16003-0.43315,0.16003-0.20855,0.33149-0.28876,0.52581-0.40106,0.08001-0.04812,0.10288-0.36898,0-0.36898-0.46866,0-0.66298,0.03208-1.0859,0.03208-0.45723,0-0.65155-0.03208-1.1431-0.03208-0.06858,0-0.08001,0.32085,0,0.36898,0.19432,0.1123,0.33149,0.19251,0.50295,0.38502,0.10288,0.14438,0.18289,0.24064,0.18289,0.44919v4.7325c0,0.24064-0.02287,0.43315-0.1486,0.59357-0.20575,0.25668-0.37721,0.32085-0.61726,0.38502-0.13717,0.04812-0.09145,0.38502,0,0.38502,0.43437,0,0.743-0.08022,1.2231-0.08022,0.4458,0,0.7087,0.08022,1.1659,0.08022,0.13717,0,0.13717-0.33689,0-0.38502-0.24004-0.06417-0.42294-0.12834-0.60583-0.38502-0.13717-0.16042-0.16003-0.35294-0.16003-0.59357v-4.7325" fill="#000"/>
	<path d="m24.089,52.664c-1.5431,0-2.8691,1.6203-2.8691,3.786,0,2.0534,1.2002,3.786,2.5948,3.786,0.66298,0,1.6117-0.25668,1.6917-0.46523,0.11431-0.25668,0.34292-0.99463,0.37721-1.2674,0.01143-0.12834,0.02287-0.28876-0.08001-0.28876-0.05716,0-0.32006,0.08022-0.34292,0.20855-0.04572,0.20855-0.13717,0.59357-0.43437,0.83421-0.2972,0.25668-0.65155,0.43315-0.96018,0.4171-1.2231-0.04812-1.8975-1.7968-1.8975-3.4973,0-1.4438,0.58297-3.016,1.7375-3.016,0.48009,0,0.97161,0.19251,1.1316,0.4171,0.09145,0.12834,0.25148,0.43315,0.28577,0.88234,0.02287,0.25668,0.16003,0.33689,0.25148,0.35294,0.06858,0.01604,0.1486-0.16042,0.1486-0.25668-0.01143-0.59357-0.03429-0.88234-0.05716-1.2192-0.02287-0.16042-0.04572-0.32085-0.10288-0.33689-0.13717-0.06417-0.52581-0.14438-0.65155-0.20855-0.1486-0.06417-0.57154-0.12834-0.82301-0.12834" fill="#000"/>
	<path d="m30.592,54.14c0-0.19251,0.06858-0.33689,0.16003-0.43315,0.16003-0.20855,0.33149-0.28876,0.52581-0.40106,0.08001-0.04812,0.10288-0.36898,0-0.36898-0.46866,0-0.66298,0.03208-1.0859,0.03208-0.45723,0-0.65155-0.03208-1.1431-0.03208-0.06858,0-0.08001,0.32085,0,0.36898,0.19432,0.1123,0.33149,0.19251,0.50295,0.38502,0.10288,0.14438,0.18289,0.24064,0.18289,0.44919v4.7325c0,0.24064-0.02286,0.43315-0.1486,0.59357-0.20575,0.25668-0.37721,0.32085-0.61726,0.38502-0.13717,0.04812-0.09145,0.38502,0,0.38502,0.43437,0,0.743-0.08022,1.2231-0.08022,0.4458,0,0.7087,0.08022,1.1659,0.08022,0.13717,0,0.13717-0.33689,0-0.38502-0.24004-0.06417-0.42294-0.12834-0.60583-0.38502-0.13717-0.16042-0.16003-0.35294-0.16003-0.59357v-4.7325" fill="#000"/>
	<path d="m37.605,53.193c1.3717,0,1.9546,1.7807,1.9546,3.401,0,1.2674-0.38864,3.0481-1.7032,3.0481-1.2802,0-1.9204-1.492-1.9204-3.3689,0-1.524,0.38864-3.0802,1.6689-3.0802m-2.6405,3.3208c0,2.0695,1.1888,3.7219,2.7091,3.7219,1.8746,0,2.8462-1.8128,2.8462-3.786,0-2.1818-1.326-3.77-2.8462-3.77-1.4631,0-2.7091,1.8609-2.7091,3.8342" fill="#000"/>
	<path d="m44.174,60.06c0.33149,0,0.51438-0.06417,0.8573-0.06417,0.33149,0,0.48009,0.06417,0.86873,0.06417,0.13717,0,0.11431-0.36898,0.03429-0.38502-0.24004-0.06417-0.28577-0.1123-0.40008-0.30481-0.10288-0.16042-0.11431-0.32085-0.12574-0.5294-0.02286-0.99463,0.02286-3.1764,0.04572-4.155,0.01143-0.14438,0.05716-0.30481,0.28577,0.04812,1.2459,1.9893,1.9089,3.0802,3.0634,5.0694,0.09145,0.14438,0.30863,0.43315,0.57154,0.43315,0.16003,0,0.28577-0.19251,0.28577-0.43315,0-2.3422-0.04572-3.6096,0.05716-5.9197,0-0.19251,0.1486-0.36898,0.21718-0.43315,0.06858-0.08022,0.17146-0.20855,0.40007-0.25668,0.08001,0,0.04572-0.35293,0-0.35293-0.34292,0-0.58297,0.06417-0.94875,0.06417-0.40008,0-0.5944-0.06417-1.0059-0.06417-0.05716,0-0.04572,0.33689,0,0.35293,0.1486,0.08022,0.77729,0.25668,0.78872,0.754,0.04572,1.7968,0.08001,2.631,0.03429,4.2994-0.01143,0.43314-0.16003,0.09625-0.20575,0-1.2574-1.9572-1.8746-3.1764-3.0863-5.1978-0.06858-0.09625-0.09145-0.24064-0.18289-0.24064-0.58296,0-1.0288,0.03208-1.646,0-0.10288,0-0.10288,0.38502,0,0.38502,0.12574,0.01604,0.49152,0.04812,0.73156,0.44919,0.09145,0.16042,0.06858,0.25668,0.06858,0.57753,0,1.8128-0.01143,2.7433-0.08001,4.4919-0.01143,0.27272-0.03429,0.49732-0.17146,0.70587s-0.25148,0.20855-0.45723,0.25668c-0.06858,0.01604-0.11431,0.38502,0,0.38502" fill="#000"/>
	<path d="m55.834,56.723c0.12574,0.03209,0.2972,0.09626,0.36578,0.43315,0.02287,0.06418,0.08001,0.30481,0.20575,0.30481,0.06858,0,0.08001-0.09625,0.06858-0.19251-0.02286-0.56149-0.03429-1.0588,0-1.6203,0.01143-0.09625-0.05716-0.17647-0.10288-0.17647-0.03429,0-0.13717,0.16042-0.16003,0.20855-0.03429,0.14438-0.06858,0.19251-0.13717,0.28876-0.09145,0.1123-0.21718,0.16042-0.34292,0.16042h-0.99447c-0.06858,0-0.08001-0.12834-0.08001-0.24064,0-0.54544,0.01143-0.60962,0.02287-1.139,0.01143-0.30481,0.05716-0.754,0.06858-0.85025,0.01143-0.14438,0.10288-0.28876,0.19432-0.28876h1.2117c0.19432,0,0.34292,0.06416,0.48009,0.28876,0.08001,0.1123,0.17146,0.36898,0.22861,0.60961,0.02287,0.08022,0.03429,0.1123,0.09145,0.1123,0.04572,0,0.12574-0.03208,0.12574-0.09625,0-0.38502-0.06858-1.0588-0.12574-1.4759-0.01143-0.08022-0.09145-0.09625-0.13717-0.09625-0.20575-0.01604-1.646,0.04812-2.6862,0.04812-0.36578,0.01604-0.5944-0.03208-0.92589-0.03208-0.10288,0-0.06858,0.32085,0,0.33689,0.30863,0.12834,0.34292,0.1123,0.49152,0.35293,0.09144,0.12834,0.10288,0.49732,0.10288,0.80212v4.4598c0,0.27272-0.08001,0.43315-0.21718,0.59357-0.17146,0.22459-0.26291,0.24064-0.51438,0.33689-0.06858,0.01604-0.05716,0.38502,0,0.38502,0,0,0.83444-0.09625,1.2231-0.09625,0.77729,0,1.6917,0.08022,2.7777,0.08022,0.08001,0,0.09145-0.09625,0.10288-0.19251,0.06858-0.35293,0.16003-0.94651,0.19432-1.3797,0-0.08022-0.05716-0.1123-0.10288-0.12834-0.08001,0-0.13717,0.01604-0.17146,0.1123-0.05716,0.17647-0.22861,0.57753-0.36578,0.73796-0.10288,0.1123-0.51438,0.19251-0.54867,0.19251h-1.0059c-0.34292,0-0.48009-0.36898-0.49152-0.81817-0.01143-0.62566-0.02287-1.0909-0.02287-1.7647,0-0.19251,0.08001-0.24064,0.19432-0.27272,0.37721-0.08022,0.66298-0.04812,0.98304,0.01604" fill="#000"/>
	<path d="m61.928,59.675c-0.90302,0-1.2688-1.5561-1.3603-1.5561-0.09145,0-0.22861,0.08022-0.22861,0.17647,0.01143,0.40106,0.17146,1.2674,0.26291,1.524,0.02286,0.04812,0,0.09625,0.12574,0.12834,0.28577,0.08022,0.61726,0.28876,1.2345,0.28876,1.2917,0,1.8175-1.2192,1.8175-2.1016,0-1.123-0.81158-1.9251-1.2574-2.3262-0.42294-0.38502-1.0745-0.88234-1.0745-1.5882,0-0.60961,0.25148-0.94651,0.78872-0.94651,0.28577,0,0.84587,0.12834,1.0516,1.139,0.02286,0.16042,0.22861,0.27272,0.27434,0.27272,0.04572,0,0.09145-0.17647,0.09145-0.27272,0-0.38502-0.06858-0.80212-0.12574-1.1871-0.01143-0.09625-0.06858-0.20855-0.1486-0.24064-0.17146-0.03209-0.49152-0.27272-1.0402-0.27272-1.1774,0-1.7375,1.2192-1.7375,1.893,0,0.88234,0.49152,1.6684,1.0859,2.1978,0.67441,0.60961,1.1316,0.94651,1.1316,1.6684,0,0.67378-0.18289,1.2032-0.8916,1.2032" fill="#000"/>
</svg>
